<?xml version="1.0" standalone="no"?>
<!DOCTYPE svg PUBLIC "-//W3C//DTD SVG 20010904//EN"
 "http://www.w3.org/TR/2001/REC-SVG-20010904/DTD/svg10.dtd">
<svg version="1.0" xmlns="http://www.w3.org/2000/svg"
 width="1600.000000pt" height="1600.000000pt" viewBox="0 0 1600.000000 1600.000000"
 preserveAspectRatio="xMidYMid meet">

<g transform="translate(0.000000,1600.000000) scale(0.100000,-0.100000)"
fill="#000000" stroke="none">
<path d="M7511 15099 c-191 -9 -569 -38 -591 -45 -8 -3 -91 -14 -184 -25 -167
-19 -594 -99 -744 -140 -42 -11 -113 -30 -157 -40 -147 -37 -522 -165 -710
-244 -162 -68 -355 -157 -468 -217 -11 -5 -60 -30 -110 -55 -51 -25 -99 -51
-107 -58 -8 -7 -32 -22 -52 -34 -153 -85 -222 -128 -384 -237 -88 -59 -170
-115 -184 -126 -123 -92 -158 -119 -175 -135 -10 -10 -33 -28 -50 -41 -68 -51
-229 -197 -455 -412 -207 -198 -441 -438 -491 -505 -12 -16 -33 -41 -45 -55
-44 -47 -117 -141 -242 -307 -78 -104 -217 -310 -271 -403 -25 -41 -61 -102
-81 -135 -102 -167 -293 -568 -371 -779 -155 -418 -259 -810 -329 -1236 -25
-156 -30 -192 -42 -320 -17 -180 -18 -1094 -1 -1235 7 -55 17 -156 23 -225 25
-275 116 -738 202 -1025 124 -416 236 -698 425 -1070 166 -327 419 -729 618
-981 22 -28 49 -64 60 -79 44 -62 63 -85 145 -180 220 -255 516 -552 622 -623
21 -13 38 -28 38 -32 0 -4 25 -26 55 -49 30 -23 62 -49 72 -59 10 -10 39 -32
65 -48 27 -16 48 -32 48 -36 0 -4 26 -24 58 -44 56 -37 68 -46 107 -81 23 -20
54 -43 131 -93 29 -19 104 -69 166 -111 179 -120 310 -199 473 -285 55 -29
134 -71 175 -94 41 -22 100 -52 130 -67 30 -14 93 -43 139 -64 72 -34 201 -87
476 -194 33 -13 105 -37 160 -53 55 -17 136 -42 180 -55 108 -35 406 -98 620
-133 50 -7 115 -19 145 -24 68 -12 296 -36 535 -55 504 -40 1231 15 1768 134
26 6 66 15 90 20 248 55 669 193 875 287 42 19 93 42 112 51 19 8 76 34 125
58 50 24 97 46 105 49 8 3 29 14 45 24 17 10 73 41 125 69 52 28 111 59 130
70 119 69 192 112 246 148 34 22 77 49 95 60 18 11 43 27 55 35 13 8 57 37 98
64 42 27 76 53 76 57 0 5 16 17 35 26 35 18 172 120 234 173 19 17 37 30 41
30 4 0 27 19 51 43 24 23 71 65 103 92 252 213 560 518 692 684 10 14 42 50
70 80 60 66 166 198 249 311 33 45 70 93 82 109 36 46 181 260 224 330 21 36
63 102 91 146 117 181 418 814 463 975 4 14 13 39 20 55 15 34 58 155 103 290
34 104 127 433 137 485 3 19 13 64 22 100 70 294 116 794 117 1290 1 590 -57
1080 -184 1555 -227 851 -575 1554 -1108 2239 -328 422 -762 847 -1172 1151
-56 41 -76 57 -142 109 -32 26 -60 46 -62 46 -7 0 -200 129 -216 144 -9 8 -27
20 -40 25 -14 6 -32 15 -40 20 -19 12 -163 97 -210 124 -93 54 -433 227 -445
227 -2 0 -36 15 -77 34 -157 72 -236 106 -244 106 -5 0 -51 16 -104 36 -146
56 -184 69 -330 114 -74 23 -160 50 -190 60 -94 31 -163 49 -225 59 -33 6
-112 21 -175 34 -265 56 -633 102 -930 117 -118 5 -222 9 -230 8 -8 0 -89 -5
-179 -9z m-265 -1652 c34 -18 151 -117 251 -213 68 -66 72 -72 78 -124 3 -30
5 -1904 3 -4164 l-3 -4109 -85 -79 c-47 -44 -102 -91 -123 -105 -36 -25 -40
-26 -148 -19 -392 25 -717 157 -943 383 -35 35 -66 63 -70 63 -3 0 -142 50
-308 111 l-303 112 -145 -2 c-176 -3 -262 13 -375 68 -166 79 -310 226 -398
404 -58 117 -85 217 -94 340 -6 93 -7 98 -27 93 -117 -29 -310 -41 -441 -27
-512 54 -1014 352 -1254 744 -93 153 -161 309 -186 429 -19 88 -19 283 -1 368
l14 65 -32 55 c-94 163 -120 263 -120 465 1 125 4 164 24 235 29 110 78 215
136 297 l47 65 -21 87 c-50 203 -50 359 0 556 65 261 227 521 396 635 21 15
22 16 5 60 -21 60 -30 273 -13 347 17 80 62 183 114 263 55 84 173 202 250
248 132 81 308 133 391 118 l32 -6 7 52 c32 244 117 434 248 554 103 93 276
166 430 180 l66 7 27 76 c112 315 336 569 622 707 135 65 352 124 458 124 36
0 54 9 126 63 410 309 737 461 1053 487 136 11 276 5 312 -13z m1346 -8 c240
-47 443 -144 850 -406 l177 -114 98 -10 c250 -25 499 -115 664 -239 69 -51
178 -159 229 -226 92 -119 186 -302 213 -415 l12 -49 88 0 c109 0 186 -19 296
-72 119 -57 232 -169 290 -288 49 -100 79 -212 87 -326 l7 -82 54 -11 c135
-27 314 -168 401 -316 82 -141 120 -316 108 -500 l-7 -101 53 -17 c141 -45
288 -198 382 -398 109 -232 119 -447 34 -695 l-20 -60 32 -73 c78 -179 105
-331 97 -542 -6 -164 -29 -268 -85 -392 l-35 -77 13 -105 c25 -213 -24 -412
-153 -627 -196 -326 -450 -544 -752 -643 -250 -83 -519 -105 -837 -70 l-67 7
6 -163 c4 -143 2 -177 -17 -269 -58 -283 -217 -542 -435 -707 -124 -94 -320
-153 -515 -153 -40 0 -89 -13 -180 -46 -69 -25 -164 -59 -212 -75 -175 -60
-272 -99 -280 -113 -12 -21 -152 -132 -233 -184 -233 -151 -576 -249 -872
-252 -45 0 -84 28 -211 147 l-52 49 2 4167 3 4166 60 61 c66 68 204 186 250
216 57 37 278 38 457 3z"/>
<path d="M6791 13015 c-81 -26 -251 -97 -250 -105 0 -3 26 -22 57 -42 114 -74
218 -182 287 -301 15 -26 44 -96 65 -155 l38 -107 80 -3 80 -3 5 53 c2 29 5
180 6 335 1 234 -1 283 -13 296 -20 20 -175 57 -233 56 -26 0 -81 -11 -122
-24z"/>
<path d="M6045 12569 l-166 -110 8 -87 c14 -155 7 -297 -21 -427 -14 -66 -35
-167 -48 -224 l-22 -103 35 -29 c18 -16 67 -46 108 -67 l75 -37 144 0 143 0 2
131 2 132 48 94 c38 76 63 109 135 180 48 48 108 103 134 123 l48 36 -20 52
c-30 78 -83 149 -189 249 -88 84 -229 198 -244 198 -4 0 -81 -50 -172 -111z"/>
<path d="M5443 12370 c-67 -30 -143 -91 -231 -186 -71 -77 -82 -93 -87 -133
-18 -137 -47 -250 -86 -328 -87 -175 -272 -322 -443 -352 -47 -8 -46 -5 -27
-135 10 -60 10 -99 1 -164 -9 -72 -9 -87 3 -94 72 -40 301 -242 411 -363 40
-44 114 -135 165 -203 l92 -122 102 71 c228 159 616 412 684 446 69 34 76 35
157 31 119 -6 200 -46 261 -129 65 -89 79 -140 72 -274 -3 -61 -1 -133 4 -161
19 -101 106 -231 241 -360 105 -99 373 -298 389 -288 10 6 12 2275 1 2291 -6
9 -34 9 -125 -2 l-117 -13 -64 -51 c-77 -62 -118 -107 -148 -164 -23 -44 -25
-76 -17 -262 4 -107 -11 -145 -86 -214 -274 -252 -949 -121 -1150 224 -26 43
-30 61 -33 147 -5 110 5 173 56 378 33 132 36 157 35 278 0 73 -4 137 -9 142
-5 5 -26 1 -51 -10z"/>
<path d="M3782 10953 c-102 -130 -275 -437 -306 -542 -9 -30 -16 -82 -16 -116
0 -61 1 -64 61 -141 69 -89 107 -160 141 -260 19 -58 23 -89 23 -199 l0 -130
-48 -113 c-27 -63 -60 -146 -74 -185 -33 -93 -115 -215 -196 -296 l-65 -63 38
-72 c49 -90 79 -196 87 -309 l6 -88 81 -41 c160 -80 287 -193 384 -341 70
-107 121 -255 122 -349 l0 -28 264 0 c300 0 360 5 353 29 -70 243 -90 419 -67
571 29 184 71 297 154 407 l47 62 -37 58 c-54 85 -161 220 -224 283 -147 146
-278 219 -630 346 -31 11 129 97 222 119 133 31 258 11 414 -65 196 -95 401
-287 489 -457 l26 -52 -107 -103 -106 -104 54 -36 c63 -41 138 -115 138 -135
0 -7 -7 -29 -15 -49 -8 -19 -24 -80 -37 -137 -19 -84 -23 -132 -23 -277 0
-151 3 -185 22 -251 32 -111 62 -187 76 -192 9 -3 466 18 485 22 1 1 2 196 2
434 0 443 -8 568 -46 757 -82 402 -325 878 -643 1259 -158 189 -484 488 -519
477 -62 -20 -183 -47 -253 -56 -89 -12 -112 -10 -272 27 -127 29 -122 17 -56
160 60 128 91 205 86 210 -3 2 -18 -13 -35 -34z"/>
<path d="M5948 10314 c-258 -173 -498 -347 -498 -359 0 -6 4 -15 10 -21 22
-22 156 -285 238 -466 26 -57 35 -68 55 -68 44 0 200 -50 293 -94 254 -121
459 -313 544 -514 48 -114 63 -186 64 -319 1 -108 -1 -124 -20 -150 -46 -63
-158 -92 -227 -57 -75 38 -102 80 -111 174 -16 150 -60 247 -155 340 -87 85
-281 213 -297 197 -4 -4 2 -46 14 -94 57 -235 70 -527 43 -947 -6 -94 -9 -172
-6 -174 3 -4 434 32 710 58 55 5 128 10 161 11 l62 2 88 -69 c49 -38 119 -98
156 -132 37 -35 71 -61 77 -58 6 4 10 313 10 810 l1 805 -22 16 c-13 8 -104
64 -203 123 -229 136 -353 229 -485 362 -152 152 -244 289 -291 435 -18 56
-23 94 -23 187 -1 65 -4 118 -8 118 -4 0 -85 -52 -180 -116z"/>
<path d="M3328 7963 c-25 -38 -73 -104 -106 -148 -33 -44 -59 -81 -58 -83 7
-7 131 -22 261 -31 77 -6 164 -14 193 -17 40 -4 52 -2 52 8 0 20 -66 127 -120
194 -40 50 -151 144 -170 144 -4 0 -27 -30 -52 -67z"/>
<path d="M6580 7443 c-19 -2 -114 -10 -210 -18 -303 -26 -277 -20 -284 -67 -8
-50 -64 -173 -111 -244 -19 -29 -35 -54 -35 -57 0 -2 69 -6 153 -10 176 -6
219 -18 321 -91 149 -106 239 -292 223 -459 -15 -152 -91 -282 -294 -501 -70
-76 -181 -195 -245 -265 -65 -69 -118 -129 -118 -132 0 -3 51 -25 113 -49 304
-115 415 -172 506 -255 88 -80 144 -119 244 -165 84 -39 293 -97 305 -85 9 9
16 1856 7 1913 -7 48 -46 97 -279 349 l-131 142 -65 -1 c-36 -1 -81 -3 -100
-5z"/>
<path d="M5585 7349 c-44 -4 -311 -22 -594 -39 -662 -39 -1076 -40 -1486 -4
l-70 6 2 -178 1 -178 109 -94 c205 -180 264 -216 438 -267 196 -58 450 -39
636 45 47 22 119 48 161 59 49 12 86 28 104 45 64 59 222 117 627 233 10 3 34
39 56 86 21 45 68 127 104 181 36 55 64 103 61 108 -6 9 -37 9 -149 -3z"/>
<path d="M5705 6665 c-62 -45 -155 -92 -260 -132 -44 -17 -111 -43 -150 -58
-38 -15 -73 -32 -77 -38 -17 -27 -8 -162 16 -238 23 -71 38 -172 54 -359 l7
-84 120 -24 119 -24 51 54 c27 29 101 110 164 178 126 139 243 262 398 420
l102 105 -24 94 c-13 51 -27 97 -32 102 -4 4 -73 12 -153 18 -80 6 -176 13
-215 16 -68 5 -71 4 -120 -30z"/>
<path d="M8295 13019 c-33 -12 -63 -26 -67 -32 -10 -16 -10 -595 0 -601 4 -2
37 2 72 11 36 8 108 16 160 17 l95 1 23 55 c37 86 123 207 217 308 l87 92
-103 49 c-131 62 -285 111 -363 116 -45 4 -77 -1 -121 -16z"/>
<path d="M9133 12603 c-32 -38 -98 -121 -147 -186 l-88 -117 55 -73 c59 -77
99 -152 146 -270 35 -87 122 -346 146 -433 20 -71 29 -78 135 -96 84 -15 145
1 236 61 84 54 98 72 91 118 -10 60 -45 160 -98 275 -89 194 -129 356 -129
519 0 58 -3 68 -27 91 -27 25 -248 178 -257 178 -3 0 -31 -30 -63 -67z"/>
<path d="M9855 12378 c9 -99 26 -150 108 -312 133 -267 168 -391 147 -518 -32
-187 -170 -343 -395 -449 -265 -124 -565 -92 -733 78 l-57 58 -140 374 c-77
206 -145 380 -152 387 -28 28 -230 25 -373 -5 l-35 -7 -3 -1543 c-1 -942 2
-1540 7 -1537 5 4 22 43 37 89 76 230 164 364 329 507 l85 72 0 153 c0 301 70
529 230 744 151 204 350 348 585 424 107 34 167 44 313 52 206 11 351 61 515
181 l79 57 32 -16 c71 -34 236 -216 236 -262 0 -6 -35 -37 -77 -68 -252 -181
-495 -270 -783 -287 -143 -8 -157 -11 -265 -60 -132 -60 -282 -188 -357 -305
-99 -154 -130 -294 -129 -579 l1 -179 -73 -76 c-200 -209 -272 -304 -329 -430
-46 -100 -78 -240 -78 -338 0 -77 21 -202 38 -229 5 -8 156 -15 512 -23 278
-6 684 -18 903 -27 219 -9 401 -14 404 -11 3 3 -3 39 -12 79 -25 108 -31 321
-11 440 17 103 54 230 92 316 77 174 257 353 474 471 l70 38 -33 44 c-174 232
-250 420 -251 619 -1 150 29 254 108 373 102 153 309 297 427 297 l28 0 -6 93
c-3 60 -10 96 -19 103 -8 6 -49 14 -92 18 -180 15 -372 85 -522 191 -196 138
-289 311 -320 595 l-12 115 -110 104 c-60 57 -130 120 -154 138 -46 35 -213
123 -233 123 -9 0 -10 -20 -6 -72z m315 -2514 c84 -16 210 -60 257 -91 23 -15
25 -21 20 -65 -10 -80 -113 -282 -184 -359 -22 -24 -27 -26 -51 -14 -47 23
-146 62 -173 69 -25 5 -31 -1 -97 -112 -134 -225 -166 -308 -182 -479 -6 -71
-17 -121 -31 -150 -54 -112 -206 -136 -291 -46 -40 42 -58 103 -58 200 0 221
64 414 179 539 38 41 39 43 29 85 -36 155 40 313 181 378 130 60 252 74 401
45z"/>
<path d="M11355 10559 c-97 -21 -127 -37 -163 -89 -32 -48 -45 -106 -39 -178
6 -81 65 -205 177 -372 65 -97 85 -120 98 -114 24 10 213 54 234 54 10 0 25
12 35 28 9 15 37 51 61 80 l44 52 -50 55 c-96 105 -191 284 -230 435 -16 61
-19 65 -47 67 -17 1 -70 -7 -120 -18z"/>
<path d="M11765 9494 c-123 -43 -191 -61 -275 -75 -46 -7 -98 -28 -180 -70
-352 -182 -520 -416 -520 -725 0 -114 26 -322 42 -341 7 -8 36 -13 79 -13 67
0 69 1 74 28 19 89 71 228 112 301 154 271 466 447 831 468 l102 6 11 41 c6
23 22 69 36 102 l24 62 -65 68 c-36 38 -85 95 -108 127 -24 31 -47 57 -53 56
-5 0 -55 -16 -110 -35z"/>
<path d="M11930 8685 c-268 -39 -418 -125 -497 -286 -54 -109 -75 -169 -60
-173 6 -2 59 -9 115 -16 57 -6 212 -29 345 -51 133 -22 247 -37 254 -35 7 3
21 22 32 44 11 21 40 61 65 89 l47 52 -45 138 c-25 76 -51 161 -57 188 -7 28
-17 53 -23 57 -15 10 -76 8 -176 -7z"/>
<path d="M8220 8127 c0 -85 3 -156 6 -160 3 -3 29 28 56 69 l50 75 -25 37
c-13 20 -36 58 -51 85 -15 26 -29 47 -31 47 -3 0 -5 -69 -5 -153z"/>
<path d="M8585 7801 c-108 -153 -154 -241 -155 -295 0 -16 11 -48 24 -70 67
-114 74 -262 19 -379 -39 -83 -100 -163 -184 -242 l-64 -60 -3 -857 c-2 -689
0 -858 10 -858 25 0 244 59 298 80 30 12 92 42 138 68 93 53 88 37 58 167 -41
184 6 363 141 528 65 79 175 171 268 222 36 20 65 39 65 42 0 4 -27 31 -60 61
-157 142 -296 352 -335 507 -19 76 -19 205 0 280 56 212 257 364 527 397 172
22 321 -14 638 -152 220 -95 203 -92 184 -39 -27 76 -62 233 -69 310 -8 89 13
226 50 325 14 37 24 68 23 69 -7 6 -802 35 -1119 41 l-345 7 -109 -152z"/>
<path d="M10540 7843 c-53 -138 -90 -260 -90 -293 0 -19 11 -69 24 -110 13
-41 48 -154 77 -250 29 -96 56 -180 61 -186 6 -8 23 -8 61 -2 68 13 221 5 322
-17 59 -13 110 -16 195 -13 141 6 243 37 430 132 l124 63 41 80 c48 91 134
209 195 267 52 49 108 155 88 167 -48 30 -502 117 -828 158 -135 18 -234 27
-607 56 l-71 6 -22 -58z"/>
<path d="M8230 7290 c0 -11 5 -20 10 -20 6 0 10 9 10 20 0 11 -4 20 -10 20 -5
0 -10 -9 -10 -20z"/>
<path d="M9285 6977 c-28 -13 -65 -40 -83 -61 -61 -69 -40 -144 76 -277 85
-98 182 -182 421 -368 234 -183 326 -260 383 -324 20 -23 40 -39 43 -36 3 3
23 77 46 165 47 188 107 383 149 484 16 40 30 76 30 80 0 4 -17 14 -37 22 -21
9 -126 53 -233 98 -523 221 -557 233 -655 237 -79 4 -96 1 -140 -20z"/>
<path d="M9390 5827 c-138 -107 -209 -181 -254 -266 -20 -38 -36 -72 -36 -75
0 -13 34 -2 250 80 124 47 264 100 313 117 48 18 86 35 85 39 -4 9 -241 188
-248 187 -3 0 -52 -37 -110 -82z"/>
<path d="M114 1515 c-11 -28 1 -50 26 -50 20 0 25 5 25 24 0 28 -42 50 -51 26z"/>
<path d="M15861 1520 c-7 -4 -11 -18 -9 -31 5 -35 42 -33 46 2 3 28 -16 43
-37 29z"/>
</g>
</svg>
